#!OML:ASF I:\salsa\salsa 7_09\Patient 1\Session 1\dancermale.ASF
:FULLY-SPECIFIED
:DEGREES
1645
root 9.04068 16.7298 0.139414 -18.0422 -447.693 -332.561
lowerback -6.38557 -6.92332 5.06503
upperback -2.37894 -9.59956 1.52449
thorax 0.519787 -4.84462 -1.81411
lowerneck -3.50391 6.10528 3.76103
upperneck 7.72113 8.46738 -7.52404
head 3.71719 3.99162 -2.79844
rclavicle 8.29926e-015 -7.95139e-016
rhumerus -51.7273 15.4787 -102.786
rradius 97.954
rwrist -355.021
rhand -42.6921 -2.08661
rfingers 7.12502
rthumb -15.5618 -31.4805
lclavicle 8.29926e-015 -7.95139e-016
lhumerus 10.938 -0.403402 93.0219
lradius 60.2755
lwrist 50.855
lhand -15.4227 49.526
lfingers 7.12502
lthumb 10.7571 -1000.77
rfemur -43.9272 4.60584 22.5974
rtibia 40.5242
rfoot -6.0552 2.71422
rtoes -2.23766
lfemur -9.58081 7.979 -34.3979
ltibia 31.0428
lfoot -23.9004 -1.08824
ltoes 1.33843
1646
root 8.87641 16.7326 0.214913 -2.59093 -446.459 -347.859
lowerback -6.76585 -6.85838 5.50703
upperback -2.63422 -9.56548 1.64523
thorax 0.415261 -4.8407 -1.95299
lowerneck -3.30854 5.76134 3.7063
upperneck 8.05904 8.01856 -7.4668
head 3.76153 3.7653 -2.79863
rclavicle -4.59193e-014 -1.51076e-014
rhumerus -51.5306 15.7605 -102.582
rradius 97.9369
rwrist -354.635
rhand -43.0563 -2.63885
rfingers 7.12502
rthumb -15.9126 -32.0051
lclavicle -4.59193e-014 -1.51076e-014
lhumerus 8.51871 -2.31193 93.2035
lradius 62.8551
lwrist 51.0956
lhand -15.9636 50.9157
lfingers 7.12502
lthumb 10.2352 -999.353
rfemur -43.0117 5.51521 22.1296
rtibia 39.8407
rfoot -6.1666 3.10436
rtoes 1.34684
lfemur -8.77737 7.71854 -34.0195
ltibia 30.6799
lfoot -23.2646 -1.74466
ltoes 3.34631
1647
root 8.69793 16.7424 0.295817 4.47814 -445.04 -354.882
lowerback -7.18584 -6.79621 5.87222
upperback -2.77129 -9.53886 1.79348
thorax 0.471712 -4.83259 -2.04
lowerneck -3.26082 5.39613 3.57164
upperneck 8.48467 7.54766 -7.41217
head 3.86053 3.52011 -2.78265
rclavicle 4.08751e-014 -4.37326e-014
rhumerus -51.1102 15.9239 -102.295
rradius 97.7691
rwrist -353.994
rhand -43.1175 -3.08604
rfingers 7.12502
rthumb -15.9715 -32.4476
lclavicle 4.08751e-014 -4.37326e-014
lhumerus 6.13872 -4.29374 93.5061
lradius 65.5604
lwrist 51.4856
lhand -16.3587 51.7087
lfingers 7.12502
lthumb 9.8541 -998.542
rfemur -41.7832 6.36313 21.5463
rtibia 39.1733
rfoot -7.13579 2.23736
rtoes 1.78557
lfemur -7.9179 7.33378 -33.6366
ltibia 30.5284
lfoot -22.4296 -2.25103
ltoes 4.83132
1648
root 8.51011 16.7555 0.380252 8.03967 -443.565 -358.439
lowerback -7.67129 -6.70466 6.07738
upperback -2.82399 -9.47296 1.96626
thorax 0.685111 -4.79634 -2.03291
lowerneck -3.27962 4.99604 3.26096
upperneck 8.90045 7.03239 -7.28235
head 3.95436 3.24864 -2.70919
rclavicle -2.41026e-014 3.26007e-014
rhumerus -50.444 16.0878 -101.964
rradius 97.4191
rwrist -353.266
rhand -43.2701 -2.88691
rfingers 7.12502
rthumb -16.1185 -32.2366
lclavicle -2.41026e-014 3.26007e-014
lhumerus 3.7673 -6.2411 94.0618
lradius 68.4069
lwrist 51.726
lhand -16.6794 51.9002
lfingers 7.12502
lthumb 9.54469 -998.336
rfemur -40.3934 6.72606 21.0543
rtibia 38.4343
rfoot -8.33653 1.99466
rtoes 1.76005
lfemur -7.17757 6.6835 -33.322
ltibia 30.7415
lfoot -21.3081 -2.51007
ltoes 5.06212
1649
root 8.31308 16.7724 0.46868 9.81741 -442.077 -360.355
lowerback -8.01157 -6.5942 6.15712
upperback -2.85591 -9.36363 2.14127
thorax 0.864195 -4.73748 -1.93658
lowerneck -3.13732 4.57284 2.82313
upperneck 9.21162 6.48221 -7.08232
head 3.97069 2.96309 -2.59207
rclavicle 4.70623e-014 -1.74931e-014
rhumerus -49.6682 16.5223 -101.642
rradius 97.0116
rwrist -352.731
rhand -43.5343 -2.67178
rfingers 7.12502
rthumb -16.3729 -32.0007
lclavicle 4.70623e-014 -1.74931e-014
lhumerus 1.32999 -8.03145 94.8731
lradius 71.2524
lwrist 51.686
lhand -16.8689 52.4432
lfingers 7.12502
lthumb 9.36185 -997.785
rfemur -38.7368 6.65891 20.7639
rtibia 37.5067
rfoot -9.69068 1.6776
rtoes -1.0138
lfemur -6.56362 6.00474 -33.0262
ltibia 31.449
lfoot -19.7083 -2.79085
ltoes 4.96484
1650
root 8.1121 16.8014 0.559314 10.848 -440.614 -361.68
lowerback -7.79731 -6.43312 6.35736
upperback -3.16114 -9.14007 2.21827
thorax 0.426926 -4.64971 -1.89739
lowerneck -2.74267 4.1226 2.4862
upperneck 9.85251 5.89844 -6.90678
head 4.06332 2.65686 -2.50919
rclavicle 9.18137e-015 -1.59028e-014
rhumerus -49.3179 16.6847 -101.526
rradius 96.6053
rwrist -352.064
rhand -43.7654 -2.37486
rfingers 7.12502
rthumb -16.5953 -31.6853
lclavicle 9.18137e-015 -1.59028e-014
lhumerus -1.77149 -9.86144 95.7543
lradius 74.2283
lwrist 51.7048
lhand -17.1126 52.7764
lfingers 7.12502
lthumb 9.12665 -997.441
rfemur -36.8022 5.861 20.8902
rtibia 36.4047
rfoot -10.4258 0.730446
rtoes 3.18607
lfemur -6.35974 5.90995 -32.5204
ltibia 33.1353
lfoot -17.6776 -3.7265
ltoes 5.14795
1651
root 7.91314 16.845 0.648288 12.2486 -439.2 -363.419
lowerback -7.98789 -6.20415 6.53053
upperback -3.02776 -8.87144 2.32914
thorax 0.68232 -4.50433 -1.89851
lowerneck -2.81893 3.65867 2.19635
upperneck 10.3911 5.30414 -6.85914
head 4.22343 2.33733 -2.47276
rclavicle -4.10615e-014 -9.54166e-015
rhumerus -48.0107 16.8323 -101.22
rradius 95.9403
rwrist -351.313
rhand -44.2271 -1.62087
rfingers 7.12502
rthumb -17.0398 -30.8935
lclavicle -4.10615e-014 -9.54166e-015
lhumerus -4.20026 -11.8392 96.4401
lradius 77.168
lwrist 51.7713
lhand -18.4066 52.3676
lfingers 7.12502
lthumb 7.87788 -997.799
rfemur -34.7297 4.66663 21.4196
rtibia 35.1114
rfoot -10.8725 -0.33388
rtoes 4.92987
lfemur -6.89521 6.63985 -31.5869
ltibia 36.1341
lfoot -15.4079 -5.39168
ltoes 6.33119
1652
root 7.72212 16.9004 0.731399 13.881 -437.916 -365.482
lowerback -7.63628 -5.9581 6.70617
upperback -3.1049 -8.53049 2.54913
thorax 0.443151 -4.34466 -1.70078
lowerneck -2.58281 3.19947 1.94186
upperneck 11.2902 4.75709 -7.09932
head 4.00576 2.00567 -2.28476
rclavicle -8.31479e-015 3.33958e-014
rhumerus -46.8738 17.2298 -100.981
rradius 95.1546
rwrist -350.442
rhand -44.9417 -0.807266
rfingers 7.12502
rthumb -17.7276 -30.0192
lclavicle -8.31479e-015 3.33958e-014
lhumerus -6.89821 -13.562 97.2226
lradius 80.0605
lwrist 51.5458
lhand -19.5749 52.1434
lfingers 7.12502
lthumb 6.75016 -997.984
rfemur -32.7728 3.55001 22.0745
rtibia 33.9279
rfoot -11.2958 -1.01388
rtoes 5.85451
lfemur -8.14511 7.98169 -30.3248
ltibia 40.3266
lfoot -11.5407 -7.09284
ltoes 9.40787
1653
root 7.54274 16.9579 0.805626 16.2196 -436.579 -368.028
lowerback -7.44007 -5.6755 6.97197
upperback -3.14296 -8.16547 2.87935
thorax 0.334527 -4.16923 -1.46277
lowerneck -3.05685 2.79266 1.36321
upperneck 12.389 4.24867 -6.68567
head 4.37541 1.70895 -2.08014
rclavicle -4.20686e-014 9.54166e-015
rhumerus -45.3981 17.7854 -100.698
rradius 94.3296
rwrist -349.159
rhand -45.6469 -0.311322
rfingers 7.12502
rthumb -18.4061 -29.4605
lclavicle -4.20686e-014 9.54166e-015
lhumerus -9.29667 -15.237 97.8816
lradius 82.8648
lwrist 51.1506
lhand -19.081 52.8922
lfingers 7.12502
lthumb 7.22699 -997.251
rfemur -31.1337 2.92173 22.8055
rtibia 32.728
rfoot -11.8981 -1.58639
rtoes 5.77361
lfemur -10.4582 9.54805 -28.7471
ltibia 45.5776
lfoot -6.69089 -8.38188
ltoes 10.862
1654
root 7.34372 17.0066 0.885164 17.742 -435.299 -369.763
lowerback -7.54705 -5.29856 7.20504
upperback -3.05522 -7.703 3.08703
thorax 0.517019 -3.93248 -1.3714
lowerneck -3.67314 2.34889 0.766504
upperneck 13.4838 3.67846 -6.11881
head 4.77055 1.39029 -1.83025
rclavicle 5.82299e-015 -3.02153e-014
rhumerus -43.8969 18.1397 -100.428
rradius 93.6712
rwrist -347.602
rhand -46.2917 0.364066
rfingers 7.12502
rthumb -19.0262 -28.7254
lclavicle 5.82299e-015 -3.02153e-014
lhumerus -11.5218 -17.0392 98.33
lradius 85.6538
lwrist 50.9171
lhand -18.3406 53.4485
lfingers 7.12502
lthumb 7.9416 -996.721
rfemur -29.1864 2.3078 23.4446
rtibia 31.1817
rfoot -12.3427 -2.24506
rtoes 5.12608
lfemur -12.8481 11.2028 -27.2709
ltibia 50.8764
lfoot -2.27475 -9.21537
ltoes 11.4862
1655
root 7.16046 17.0457 0.951636 19.631 -434.114 -371.643
lowerback -7.75802 -4.80016 7.45942
upperback -2.98291 -7.0935 3.28187
thorax 0.747747 -3.62197 -1.30277
lowerneck -3.88638 1.77025 0.310008
upperneck 14.0006 2.911 -5.7675
head 4.92698 0.99502 -1.68728
rclavicle 2.75682e-014 1.82882e-014
rhumerus -42.3546 18.3032 -100.181
rradius 93.1757
rwrist -345.803
rhand -47.091 1.5434
rfingers 7.12502
rthumb -19.7948 -27.4686
lclavicle 2.75682e-014 1.82882e-014
lhumerus -13.4306 -19.0287 98.4454
lradius 88.4539
lwrist 50.9831
lhand -18.4178 53.5365
lfingers 7.12502
lthumb 7.86707 -996.63
rfemur -27.6629 1.95196 24.2702
rtibia 29.8532
rfoot -12.8073 -3.15495
rtoes 4.08789
lfemur -15.8014 12.761 -25.7515
ltibia 56.2592
lfoot 1.71904 -9.87944
ltoes 10.3318
1656
root 6.97459 17.0704 1.01608 19.3687 -432.776 -371.625
lowerback -7.68574 -4.4511 7.23903
upperback -2.86548 -6.61254 3.32958
thorax 0.897123 -3.37205 -1.10779
lowerneck -3.78941 1.11091 -0.0439066
upperneck 14.1834 2.02373 -5.55934
head 4.93318 0.552179 -1.61398
rclavicle 2.32469e-014 -8.74653e-015
rhumerus -40.9825 18.6069 -99.9984
rradius 92.8836
rwrist -343.577
rhand -48.1215 2.43384
rfingers 7.12502
rthumb -20.7851 -26.4729
lclavicle 2.32469e-014 -8.74653e-015
lhumerus -15.1929 -21.0338 98.2982
lradius 91.2448
lwrist 51.1317
lhand -18.656 53.691
lfingers 7.12502
lthumb 7.63718 -996.467
rfemur -25.759 1.56755 24.5999
rtibia 28.4554
rfoot -13.4303 -4.25725
rtoes 3.30036
lfemur -18.3666 13.6692 -24.7298
ltibia 61.2423
lfoot 3.86596 -10.2649
ltoes 6.79311
1657
root 6.783 17.0927 1.08013 18.8686 -431.214 -371.462
lowerback -7.47689 -4.16633 7.07537
upperback -2.83878 -6.20053 3.32758
thorax 0.855401 -3.16527 -0.979064
lowerneck -3.62412 0.468068 -0.363207
upperneck 14.5121 1.14947 -5.30619
head 4.97825 0.116135 -1.5319
rclavicle -4.01607e-014 -1.59028e-015
rhumerus -39.8291 19.1957 -99.8615
rradius 92.5778
rwrist -340.885
rhand -49.3949 2.66058
rfingers 7.12502
rthumb -22.0083 -26.1073
lclavicle -4.01607e-014 -1.59028e-015
lhumerus -17.0137 -22.9761 98.0082
lradius 93.964
lwrist 51.2327
lhand -18.4377 53.8243
lfingers 7.12502
lthumb 7.84787 -996.341
rfemur -23.7322 1.56187 24.9174
rtibia 27.0478
rfoot -13.9076 -5.84345
rtoes 3.38402
lfemur -20.7989 13.9348 -23.773
ltibia 65.8008
lfoot 3.81721 -9.74581
ltoes -1.16534
1658
root 6.60192 17.1134 1.13642 18.3079 -430.019 -371.255
lowerback -7.24838 -3.7475 6.73632
upperback -2.68786 -5.6002 3.25613
thorax 0.951353 -2.85593 -0.820566
lowerneck -3.44118 -0.208146 -0.492173
upperneck 14.6321 0.228918 -5.20331
head 4.95978 -0.334245 -1.52777
rclavicle -3.4865e-014 7.15625e-015
rhumerus -38.2848 19.9267 -99.5771
rradius 92.021
rwrist -338.033
rhand -50.7868 3.57671
rfingers 7.12502
rthumb -23.3441 -25.0278
lclavicle -3.4865e-014 7.15625e-015
lhumerus -18.3529 -24.9048 97.4115
lradius 96.5252
lwrist 51.606
lhand -17.9261 54.0815
lfingers 7.12502
lthumb 8.34162 -996.103
rfemur -22.0711 2.17318 25.1364
rtibia 26.1974
rfoot -14.3154 -7.62591
rtoes 3.84962
lfemur -23.2849 14.1981 -23.0683
ltibia 69.9556
lfoot 1.53889 -6.28915
ltoes -8.45138
